<svg id="Capa_1" enable-background="new 0 0 512 512" height="512" viewBox="0 0 512 512" width="512" xmlns="http://www.w3.org/2000/svg"><g><g><path d="m427.459 7.5h-333.053l-13.915 9-8.5 16.5v147.399l7.5 14.601 19.245 10.89h226.43l6.158-4.278h33.333l2.669 4.278h60.133c19.256 0 35.01-15.755 35.01-35.01v-128.37c0-19.255-15.754-35.01-35.01-35.01z" fill="#f27182"/><g><path d="m77.174 170.881v-128.371c0-19.255 15.755-35.01 35.01-35.01h-59c-19.255 0-35.01 15.755-35.01 35.01v128.371c0 19.255 15.755 35.01 35.01 35.01h59c-19.255 0-35.01-15.755-35.01-35.01z" fill="#ed5469"/></g><path d="m473.376 300.073c-.711-.021-1.414-.005-2.108.042l-15.027 18.145-2.053-7.152c-1.619 2.984-2.541 6.401-2.541 10.034v-4.342c0-11.543-8.895-21.611-20.433-21.955-.582-.017-1.157-.004-1.727.025l-5.246 9.631-9.25 8.523-3.008-7.055c-1.59 2.964-2.496 6.349-2.496 9.947l-.001-4.343c-.001-11.543-8.897-21.611-20.435-21.955-.581-.017-1.155-.004-1.725.024l-4.086 5.227-9.5 13.131-2.531-9.498c-2.443 3.441-3.883 7.644-3.883 12.186v-108.324c0-7.276-3.536-13.963-9.039-18h-5.797l-5.5 9.387v148.7l-21.824-1.389c0 7.545-8.825 11.627-14.56 6.726-9.965-8.517-24.024-18.899-38.877-24.745l-6.572 3.625v15l72 85 21.131 46.332 29.039 25.333 22.45 6.133c22.089-.306 43.207-9.192 58.861-24.847 14.078-14.078 22.786-32.667 24.548-52.498.411-4.62.62-8.891.62-12.365v-92.73c.001-11.541-8.893-21.607-20.43-21.953z" fill="#ffcebe"/><g fill="#ffb1a0"><g><path d="m325.142 341.404c3.504 3.803 6.781 7.294 9.812 9.884 5.735 4.902 14.56.819 14.56-6.726v-143.083c0-7.048 3.46-13.289 8.774-17.116-3.227-2.368-7.129-3.827-11.395-3.954-11.937-.357-21.727 9.214-21.727 21.07v139.582c.001.118-.02.227-.024.343z"/><path d="m352.893 447.766c-3.725-10.637-8.279-20.455-13.652-26.516-24.207-27.311-52.837-61.147-66.036-76.835-5.034-5.982-5.713-14.569-1.475-21.373-1.378-.543-2.761-1.061-4.15-1.52-7.653-2.529-16.359-.303-21.119 6.2-5.098 6.965-4.641 16.219.687 22.551 13.199 15.688 41.83 49.524 66.036 76.835 5.373 6.061 9.927 15.879 13.652 26.516 10.625 30.344 39.042 50.83 71.192 50.829 3.62 0 6.924.023 9.974.045 3.143.022 6.266-.147 9.362-.469-29.215-3.527-54.64-28.184-64.471-56.263z"/></g><g><path d="m377.327 336.405c5.523 0 10-4.477 10-10v-36.763c-11.138.563-20 9.767-20 21.047v15.717c0 5.522 4.477 9.999 10 9.999z"/><path d="m419.487 336.405c5.523 0 10-4.477 10-10v-31.536c-11.139.564-20 9.767-20 21.047v-1.448 11.937c0 5.523 4.477 10 10 10z"/><path d="m471.647 326.405v-23.574c0-.943-.135-1.853-.379-2.717-10.959.749-19.618 9.874-19.621 21.023v5.268c0 5.523 4.477 10 10 10s10-4.477 10-10z"/></g></g></g><g><path d="m182.729 74.055c4.143 0 7.5-3.358 7.5-7.5s-3.357-7.5-7.5-7.5h-31.952c-4.143 0-7.5 3.358-7.5 7.5v81.655c0 4.142 3.357 7.5 7.5 7.5h31.952c4.143 0 7.5-3.358 7.5-7.5s-3.357-7.5-7.5-7.5h-24.452v-25.828h22.678c4.143 0 7.5-3.358 7.5-7.5s-3.357-7.5-7.5-7.5h-22.678v-25.827z"/><path d="m327.435 74.055c4.143 0 7.5-3.358 7.5-7.5s-3.357-7.5-7.5-7.5h-31.952c-4.143 0-7.5 3.358-7.5 7.5v81.655c0 4.142 3.357 7.5 7.5 7.5h31.952c4.143 0 7.5-3.358 7.5-7.5s-3.357-7.5-7.5-7.5h-24.452v-25.828h22.677c4.143 0 7.5-3.358 7.5-7.5s-3.357-7.5-7.5-7.5h-22.677v-25.827z"/><path d="m123.955 86.968c0-15.392-12.521-27.914-27.913-27.914h-24.347c-4.143 0-7.5 3.358-7.5 7.5v81.655c0 4.142 3.357 7.5 7.5 7.5s7.5-3.358 7.5-7.5v-33.328h1.279l29.246 37.909c1.478 1.916 3.698 2.919 5.943 2.919 1.6 0 3.212-.51 4.576-1.562 3.279-2.53 3.888-7.24 1.357-10.519l-22.325-28.938c13.875-1.607 24.684-13.422 24.684-27.722zm-27.913 12.914h-16.847v-25.827h16.848c7.12 0 12.913 5.793 12.913 12.914s-5.794 12.913-12.914 12.913z"/><path d="m237.759 140.196c-12.964 0-18.901-8.929-19.103-9.238-2.171-3.528-6.791-4.627-10.318-2.457-3.527 2.171-4.628 6.791-2.457 10.318.412.668 10.325 16.376 31.878 16.376 21.188 0 32.62-13.889 32.62-26.957 0-14.194-8.168-23.542-24.275-27.786-14.46-3.81-22.025-10.061-22.025-14.267 0-5.495 6.099-11.618 14.85-11.618 9.381 0 16.952 7.496 17.157 7.702 2.876 2.958 7.604 3.041 10.58.175 2.983-2.873 3.073-7.621.2-10.604-.482-.501-12-12.272-27.938-12.272-16.459 0-29.85 11.94-29.85 26.618 0 12.725 12.103 23.212 33.203 28.771 12.096 3.187 13.098 8.101 13.098 13.281 0 4.807-4.692 11.958-17.62 11.958z"/><path d="m383.128 155.71c4.143 0 7.5-3.358 7.5-7.5v-74.155h18.341c4.143 0 7.5-3.358 7.5-7.5s-3.357-7.5-7.5-7.5h-51.682c-4.143 0-7.5 3.358-7.5 7.5s3.357 7.5 7.5 7.5h18.341v74.155c0 4.142 3.358 7.5 7.5 7.5z"/><path d="m316.899 342.285c-.764.352-1.249-.062-1.409-.199-10.997-9.398-27.825-21.83-45.547-27.684-11.088-3.664-22.951-.089-29.525 8.892-7.057 9.642-6.645 22.722 1.001 31.809 14.459 17.185 42.28 50.037 66.163 76.981 2.846 3.21 7.27 9.983 12.186 24.019 11.696 33.407 43.151 55.852 78.271 55.851 3.507 0 6.717.022 9.684.042l.238.002c.213.001.424.002.637.002 47.213 0 87.79-36.057 92.071-84.213.425-4.776.649-9.281.649-13.03v-23.737c0-4.142-3.357-7.5-7.5-7.5s-7.5 3.358-7.5 7.5v23.737c0 3.312-.204 7.358-.591 11.701-3.583 40.32-37.689 70.797-77.662 70.54l-.239-.001c-2.999-.021-6.242-.043-9.787-.043-28.755 0-54.52-18.408-64.113-45.809-4.659-13.301-9.604-22.791-15.118-29.011-23.771-26.819-51.497-59.56-65.91-76.689-3.181-3.781-3.335-9.247-.374-13.292 2.677-3.657 7.904-5.098 12.715-3.508 15.409 5.09 30.533 16.32 40.507 24.844 4.901 4.189 11.581 5.117 17.433 2.419 5.86-2.7 9.501-8.389 9.501-14.846l-.001-139.582c0-7.646 6.295-13.805 14.003-13.574 7.255.217 13.157 6.703 13.157 14.458v108.325 15.716c0 4.142 3.357 7.5 7.5 7.5s7.5-3.358 7.5-7.5v-15.716c0-3.704 1.465-7.166 4.124-9.747 2.657-2.579 6.198-3.932 9.878-3.828 7.255.216 13.157 6.703 13.158 14.46l.001 4.323c0 .007-.001.013-.001.019v10.489c0 4.142 3.357 7.5 7.5 7.5s7.5-3.358 7.5-7.5v-10.471c0-.007.001-.013.001-.019 0-3.704 1.464-7.165 4.123-9.746 2.657-2.58 6.155-3.923 9.88-3.829 7.254.217 13.156 6.703 13.156 14.459v4.342 5.263c0 4.142 3.357 7.5 7.5 7.5s7.5-3.358 7.5-7.5v-5.263c0-3.705 1.465-7.166 4.125-9.747 2.657-2.579 6.203-3.944 9.878-3.826 7.255.218 13.157 6.704 13.157 14.458v33.993c0 4.142 3.357 7.5 7.5 7.5s7.5-3.358 7.5-7.5v-33.993c0-15.78-12.429-28.992-27.706-29.451-7.351-.213-14.348 2.313-19.813 7.161-5.047-7.254-13.186-12.116-22.35-12.39-7.392-.227-14.348 2.315-19.811 7.163-5.048-7.254-13.188-12.117-22.352-12.39-5.149-.153-10.075 1.031-14.449 3.402v-72.133h52.633c23.44 0 42.51-19.07 42.51-42.51v-128.368c0-23.44-19.069-42.51-42.51-42.51h-374.276c-23.44 0-42.511 19.07-42.511 42.51v128.37c0 23.44 19.07 42.51 42.511 42.51h133.104c4.143 0 7.5-3.358 7.5-7.5s-3.357-7.5-7.5-7.5h-133.104c-15.17 0-27.511-12.341-27.511-27.51v-128.37c0-15.169 12.341-27.51 27.511-27.51h374.274c15.169 0 27.51 12.341 27.51 27.51v128.37c0 15.169-12.341 27.51-27.51 27.51h-52.897c-1.885-13.992-13.49-25.046-27.42-25.477-.008 0-.016-.001-.023-.001 0 0-.012 0-.018 0-15.454-.46-27.779 11.244-29.271 25.478h-96.541c-4.143 0-7.5 3.358-7.5 7.5s3.357 7.5 7.5 7.5h96.378l.001 127.671c-.001.214-.001.865-.779 1.224z"/></g></g></svg>